<?xml version="1.0" encoding="utf-8"?>
<!-- Generator: Adobe Illustrator 19.1.0, SVG Export Plug-In . SVG Version: 6.00 Build 0)  -->
<svg version="1.1" id="Layer_1" xmlns="http://www.w3.org/2000/svg" xmlns:xlink="http://www.w3.org/1999/xlink" x="0px" y="0px"
	 viewBox="-336 232.3 42.8 18.3" style="enable-background:new -336 232.3 42.8 18.3;" xml:space="preserve">
<style type="text/css">
	.st0{fill:#FFFFFF;}
</style>
<g>
	<path class="st0" d="M-311.1,237.3c-0.1,0.1-0.2,0.3-0.3,0.4c-0.1,0.1-0.1,0.2-0.2,0.4c0,0,0,0.1-0.1,0.1c-0.2,0.5-0.4,1-0.6,1.6
		c0,0,0,0,0,0.1c-0.1,0.2-0.1,0.5-0.2,0.7c-0.9,4-1.1,9.9-1.1,9.9s1.2,0.6,8.5-5.9c7.3-6.5,11.7-12.4,11.7-12.4
		S-307.7,233.5-311.1,237.3z"/>
	<path class="st0" d="M-318.1,237.3c0.1,0.1,0.2,0.3,0.3,0.4c0.1,0.1,0.1,0.2,0.2,0.4c0,0,0,0.1,0.1,0.1c0.2,0.5,0.4,1,0.6,1.6
		c0,0,0,0,0,0.1c0.1,0.2,0.1,0.5,0.2,0.7c0.9,4,1.1,9.9,1.1,9.9s-1.2,0.6-8.5-5.9c-7.3-6.5-11.7-12.4-11.7-12.4
		S-321.5,233.5-318.1,237.3z"/>
</g>
</svg>
