<?xml version="1.0" encoding="utf-8"?>
<!-- Generator: Adobe Illustrator 19.1.0, SVG Export Plug-In . SVG Version: 6.00 Build 0)  -->
<svg version="1.1" id="Layer_1" xmlns="http://www.w3.org/2000/svg" xmlns:xlink="http://www.w3.org/1999/xlink" x="0px" y="0px"
	 viewBox="-197 398.9 200 44" style="enable-background:new -197 398.9 200 44;" xml:space="preserve">
<style type="text/css">
	.st0{fill:#FFFFFF;}
</style>
<g>
	<path class="st0" d="M-136.7,419.7v9.6h-4.1V420c0-1.9-0.9-3-2.6-3c-1.8,0-2.9,1.2-2.9,3.5v8.7h-4.1V420c0-1.9-0.9-3-2.6-3
		c-1.8,0-2.9,1.2-2.9,3.5v8.7h-4.1v-16h4.1v2.1c0.9-1.4,2.4-2.1,4.3-2.1c1.9,0,3.3,0.7,4.2,2.2c1-1.5,2.6-2.2,4.7-2.2
		C-139,413.3-136.7,415.8-136.7,419.7z"/>
	<path class="st0" d="M-133.2,409.4c0-1.3,1.1-2.5,2.5-2.5s2.5,1.2,2.5,2.5s-1.1,2.5-2.5,2.5C-132,411.9-133.2,410.7-133.2,409.4z
		 M-132.7,429.3v-16h4.1v16H-132.7z"/>
	<path class="st0" d="M-111.4,415c1.1,1.2,1.7,2.7,1.7,4.7v9.5h-4v-9c0-2.1-1.3-3.2-3.1-3.2c-2.1,0-3.5,1.3-3.5,3.9v8.4h-4v-16h4
		v2.2c1-1.5,2.6-2.2,4.7-2.2C-114,413.3-112.5,413.9-111.4,415z"/>
	<path class="st0" d="M-75.2,413.3h4.4l-5.9,16h-4.6l-5.9-16h4.4l3.8,11.4L-75.2,413.3z"/>
	<path class="st0" d="M-57,413.7h4.1v15.6H-57v-1.8c-1.1,1.5-2.9,2.3-5.1,2.3c-2.1,0-3.9-0.8-5.4-2.4s-2.2-3.6-2.2-5.9
		s0.8-4.2,2.2-5.8c1.5-1.6,3.3-2.4,5.3-2.4c2.2,0,3.9,0.7,5.1,2.3v-1.9H-57z M-61.3,426c1.2,0,2.3-0.4,3.1-1.2
		c0.8-0.8,1.2-1.9,1.2-3.2c0-1.3-0.4-2.3-1.2-3.2c-0.8-0.8-1.8-1.2-3.1-1.2c-1.2,0-2.3,0.4-3.1,1.2c-0.8,0.8-1.2,1.9-1.2,3.2
		c0,1.3,0.4,2.3,1.2,3.2C-63.6,425.6-62.6,426-61.3,426z"/>
	<path class="st0" d="M-28.6,423.2c0.5,2,2,2.9,4.4,2.9c1.5,0,2.7-0.5,3.5-1.6l3.2,1.9c-1.5,2.2-3.8,3.3-6.8,3.3
		c-2.6,0-4.7-0.8-6.2-2.3c-1.6-1.6-2.3-3.5-2.3-5.9c0-2.3,0.8-4.3,2.3-5.9c1.5-1.6,3.5-2.4,5.9-2.4c2.3,0,4.2,0.8,5.7,2.4
		s2.2,3.5,2.2,5.9c0,0.5,0,1.1-0.1,1.7H-28.6z M-20.7,420.1c-0.5-2.2-2-3.2-3.9-3.2c-2.2,0-3.6,1.1-4.1,3.2H-20.7z"/>
	<path class="st0" d="M-3.7,413.3h4.3L-5,429c-1.6,4.5-4.3,6.5-8.2,6.2v-3.7c2.2,0,3.3-0.9,4.1-3l-6.4-15.1h4.4l4.1,10.5L-3.7,413.3
		z"/>
	<path class="st0" d="M-44.8,406.6L-44.8,406.6c-4.1,0.5-4,3.6-4,3.6v19.3h4V406.6L-44.8,406.6z"/>
	<path class="st0" d="M-90,407.5L-90,407.5c-4.1,0.5-4,3.6-4,3.6v4.5c-1.3-1.5-2.8-2.3-5-2.3c-2.1,0-3.9,0.8-5.4,2.4
		s-2.2,3.5-2.2,5.8s0.8,4.3,2.2,5.9c1.5,1.6,3.3,2.4,5.4,2.4c2.2,0,3.7-0.7,5-2.3v1.9h4V407.5L-90,407.5z M-95.1,424.7
		c-0.8,0.8-1.8,1.2-3.1,1.2c-1.2,0-2.3-0.4-3.1-1.2c-0.8-0.8-1.2-1.9-1.2-3.2c0-1.3,0.4-2.3,1.2-3.2c0.8-0.8,1.9-1.2,3.1-1.2
		s2.3,0.4,3.1,1.2c0.8,0.8,1.2,1.9,1.2,3.2C-93.9,422.8-94.3,423.9-95.1,424.7z"/>
	<path class="st0" d="M-36.5,406.6L-36.5,406.6c-4.1,0.5-4,3.6-4,3.6v19.3h4V406.6L-36.5,406.6z"/>
	<g>
		<path class="st0" d="M-176.7,411.4c-1.4,1.7-1.8,9.4-1.8,9.6l0,0l0,0c0,0,0.9,0.5,6.2-4.3c5.3-4.7,8.5-9.1,8.5-9.1
			S-174.3,408.6-176.7,411.4z"/>
		<path class="st0" d="M-180.1,421c0,0,0,0,0-0.1l0,0c0-0.1,0-0.4,0-0.7l0,0c0-0.1,0-0.1,0-0.2l0,0c0-0.1,0-0.1,0-0.2l0,0
			c0-0.1,0-0.2,0-0.2l0,0c0-0.1,0-0.2,0-0.2l0,0c0-0.1,0-0.2,0-0.3l0,0c0-0.1,0-0.2,0-0.3c0,0,0,0,0-0.1s0-0.2,0-0.3c0,0,0,0,0-0.1
			s0-0.2,0-0.3c0,0,0,0,0-0.1s0-0.2,0-0.3l0,0c0-0.1,0-0.2,0-0.3c0,0,0,0,0-0.1s0-0.2,0-0.3c0,0,0,0,0-0.1s0-0.2,0-0.3l0,0
			c0-0.1,0-0.2,0-0.3c0,0,0,0,0-0.1s0-0.2,0-0.3c0,0,0,0,0-0.1s0-0.2,0-0.3c0,0,0,0,0-0.1s0-0.2,0-0.3l0,0c0-0.1,0-0.2-0.1-0.3
			c0,0,0,0,0-0.1s0-0.2-0.1-0.3c0,0,0,0,0-0.1s0-0.2-0.1-0.3l0,0c0-0.1,0-0.2-0.1-0.3l0,0c0-0.1,0-0.2-0.1-0.3c0,0,0,0,0-0.1
			s0-0.2-0.1-0.3l0,0c0-0.1,0-0.2-0.1-0.3l0,0c0-0.1-0.1-0.2-0.1-0.2l0,0c0-0.1-0.1-0.2-0.1-0.2l0,0c0-0.1-0.1-0.1-0.1-0.2l0,0
			c0-0.1-0.1-0.1-0.1-0.2l0,0c0-0.1-0.1-0.1-0.1-0.2l0,0c0-0.1-0.1-0.1-0.1-0.2l0,0l-0.1-0.1c-2.4-2.8-13-3.7-13-3.7
			s3.2,4.3,8.5,9.1C-181,421.5-180.1,421-180.1,421L-180.1,421L-180.1,421z"/>
	</g>
</g>
</svg>
