<?xml version="1.0" encoding="utf-8"?>
<!-- Generator: Adobe Illustrator 19.1.0, SVG Export Plug-In . SVG Version: 6.00 Build 0)  -->
<svg version="1.1" id="Layer_1" xmlns="http://www.w3.org/2000/svg" xmlns:xlink="http://www.w3.org/1999/xlink" x="0px" y="0px"
	 viewBox="60 -20 160 80" style="enable-background:new 60 -20 160 80;" xml:space="preserve">
<style type="text/css">
	.st0{fill:#FFFFFF;}
</style>
<g id="Layer_2">
</g>
<g>
	<g>
		<g>
			<path class="st0" d="M200.7,36.7c-1.7,0-3.2,1.5-3.2,3.2s1.5,3.2,3.2,3.2c1.7,0,3.2-1.5,3.2-3.2S202.4,36.7,200.7,36.7z"/>
			<path class="st0" d="M204.6,30.7h-7.8c-2.9,0-5.3,2.4-5.3,5.3v7.8c0,2.9,2.4,5.3,5.3,5.3h7.8c2.9,0,5.3-2.4,5.3-5.3V36
				C209.9,33.1,207.5,30.7,204.6,30.7z M200.7,44.6c-2.6,0-4.7-2.1-4.7-4.7c0-2.6,2.1-4.7,4.7-4.7s4.7,2.1,4.7,4.7
				S203.3,44.6,200.7,44.6z M205.6,36.2c-0.6,0-1.1-0.5-1.1-1.1s0.5-1.1,1.1-1.1s1.1,0.5,1.1,1.1S206.2,36.2,205.6,36.2z"/>
		</g>
	</g>
	<g>
		<circle class="st0" cx="205.6" cy="-4.9" r="1.1"/>
		<g>
			<path class="st0" d="M200.7-3.8c2,0,3.7,1.7,3.7,3.7s-1.7,3.7-3.7,3.7S197,1.9,197-0.1S198.7-3.8,200.7-3.8 M200.7-4.8
				c-2.6,0-4.7,2.1-4.7,4.7s2.1,4.7,4.7,4.7s4.7-2.1,4.7-4.7S203.3-4.8,200.7-4.8L200.7-4.8z"/>
		</g>
		<g>
			<g>
				<path class="st0" d="M204.6-8.3c2.4,0,4.3,1.9,4.3,4.3v7.8c0,2.4-1.9,4.3-4.3,4.3h-7.8c-2.4,0-4.3-1.9-4.3-4.3V-4
					c0-2.4,1.9-4.3,4.3-4.3H204.6 M204.6-9.3h-7.8c-2.9,0-5.3,2.4-5.3,5.3v7.8c0,2.9,2.4,5.3,5.3,5.3h7.8c2.9,0,5.3-2.4,5.3-5.3V-4
					C209.9-6.9,207.5-9.3,204.6-9.3L204.6-9.3z"/>
			</g>
		</g>
	</g>
	<g>
		<g>
			<path class="st0" d="M172.8,33.8c-0.3-1.5-1.5-2.5-2.7-2.6c-3.2-0.3-6.6-0.3-9.7-0.3s-6.6,0-9.7,0.3c-1.4,0.1-2.5,1.1-2.7,2.6
				c-0.4,2.1-0.4,4.1-0.4,6.1s0,4.2,0.4,6.1c0.3,1.5,1.5,2.5,2.7,2.6c3.2,0.3,6.6,0.3,9.7,0.3s6.6,0,9.7-0.3
				c1.4-0.1,2.5-1.1,2.7-2.6c0.4-2.1,0.4-4.1,0.4-6.1C173.2,37.9,173.2,35.6,172.8,33.8z M156.9,44c0-2.9,0-5.6,0-8.5
				c2.7,1.5,5.5,2.9,8.2,4.4C162.4,41,159.7,42.6,156.9,44z"/>
		</g>
	</g>
	<path class="st0" d="M89.3,34.8c-0.7,0.3-1.4,0.5-2.1,0.6c0.8-0.5,1.3-1.2,1.6-2c-0.7,0.4-1.5,0.7-2.3,0.9
		c-0.7-0.7-1.6-1.1-2.7-1.1c-2,0-3.7,1.6-3.7,3.6c0,0.3,0,0.6,0.1,0.8c-3-0.2-5.7-1.6-7.5-3.8c-0.3,0.5-0.5,1.2-0.5,1.8
		c0,1.3,0.6,2.4,1.6,3c-0.6,0-1.2-0.2-1.7-0.5l0,0c0,1.8,1.3,3.2,2.9,3.6c-0.3,0.1-0.6,0.1-1,0.1c-0.2,0-0.5,0-0.7-0.1
		c0.5,1.4,1.8,2.5,3.4,2.5c-1.3,1-2.8,1.6-4.5,1.6c-0.3,0-0.6,0-0.9-0.1c1.6,1,3.5,1.6,5.6,1.6c6.7,0,10.4-5.5,10.4-10.4
		c0-0.2,0-0.3,0-0.5C88.1,36.2,88.8,35.5,89.3,34.8L89.3,34.8z"/>
	<path class="st0" d="M117.8,40.7v7.9h4v-7.9h2.4l0.7-3.4h-3.1v-2.5c0-0.3,0.1-0.9,0.7-0.9h1.8l-0.1-3.4h-3.6
		c-1.2,0-2.8,1.6-2.8,3.2v3.7h-2.4v3.4L117.8,40.7z"/>
	<g>
		<g>
			<g>
				<path class="st0" d="M160.4-8.3c2.9,0,6,0,9,0.3c1.2,0.1,2.2,1.1,2.5,2.4c0.4,1.8,0.4,3.8,0.4,5.7c0,1.9,0,3.8-0.4,5.7
					c-0.2,1.3-1.3,2.3-2.5,2.4c-2.9,0.3-6.1,0.3-9,0.3s-6,0-9-0.3c-1.2-0.1-2.2-1.1-2.5-2.4c-0.4-1.8-0.4-3.8-0.4-5.7s0-3.8,0.4-5.7
					c0.2-1.3,1.3-2.3,2.5-2.4C154.4-8.3,157.6-8.3,160.4-8.3 M157.2,3.9c2.6-1.3,5.1-2.7,7.6-3.8c-2.5-1.3-5.1-2.7-7.6-4
					C157.2-1.3,157.2,1.2,157.2,3.9 M160.4-9.3c-2.9,0-6.1,0-9,0.3c-1.7,0.1-3.1,1.4-3.4,3.2c-0.4,2-0.4,3.8-0.4,5.9
					c0,1.9,0,3.9,0.4,5.9c0.4,1.7,1.7,3.1,3.4,3.2c3,0.3,6.1,0.3,9,0.3c2.9,0,6.1,0,9-0.3c1.7-0.1,3.1-1.4,3.4-3.2
					c0.4-2,0.4-3.8,0.4-5.9c0-1.8,0-3.9-0.4-5.9c-0.4-1.7-1.7-3.1-3.4-3.2C166.4-9.3,163.4-9.3,160.4-9.3L160.4-9.3z M158.1,2.3
					v-4.7c0.8,0.4,1.6,0.9,2.4,1.3c0.7,0.4,1.4,0.8,2.1,1.2c-1.4,0.7-2.8,1.4-4.3,2.2C158.2,2.2,158.2,2.2,158.1,2.3L158.1,2.3z"/>
			</g>
		</g>
	</g>
	<g>
		<path class="st0" d="M83.5-6.8c1.1,0,2,0.4,2.7,1.1c0.8-0.2,1.6-0.5,2.3-0.9c-0.3,0.8-0.8,1.5-1.6,2c0.7-0.1,1.4-0.3,2.1-0.6
			c-0.5,0.7-1.2,1.3-2,1.6c0,0.2,0,0.3,0,0.5c0,4.9-3.7,10.4-10.4,10.4c-2.1,0-4-0.6-5.6-1.6c0.3,0.1,0.6,0.1,0.9,0.1
			c1.7,0,3.2-0.6,4.5-1.6c-1.6,0-2.9-1.1-3.4-2.5c0.2,0.1,0.5,0.1,0.7,0.1c0.4,0,0.7,0,1-0.1c-1.6-0.4-2.9-1.8-2.9-3.6
			c0.5,0.3,1.1,0.5,1.7,0.5c-1-0.6-1.6-1.7-1.6-3c0-0.6,0.2-1.3,0.5-1.8c1.8,2.2,4.5,3.6,7.5,3.8c-0.1-0.2-0.1-0.5-0.1-0.8
			C79.8-5.1,81.5-6.8,83.5-6.8 M89-5.1L89-5.1 M83.5-7.8c-2.5,0-4.5,1.9-4.7,4.3c-2.2-0.4-4.2-1.6-5.6-3.3C73-7,72.7-7.2,72.4-7.2
			c0,0,0,0-0.1,0c-0.3,0-0.6,0.2-0.8,0.5c-0.4,0.7-0.6,1.5-0.6,2.3c0,0.6,0.1,1.2,0.3,1.7c-0.3,0.2-0.4,0.5-0.4,0.8
			c0,1.2,0.5,2.3,1.3,3.2C72,1.5,72,1.8,72.1,2c0.4,1,1,1.9,1.9,2.4c-0.7,0.2-1.3,0.4-2,0.4c-0.2,0-0.4,0-0.6,0
			c-0.1,0-0.2-0.1-0.3-0.1c-0.4,0-0.7,0.2-0.9,0.6c-0.2,0.5-0.1,1,0.4,1.3c1.8,1.1,4,1.8,6.1,1.8c7.1,0,11.3-5.7,11.4-11.3
			c0.7-0.4,1.3-0.9,1.8-1.6c0.1-0.2,0.2-0.4,0.2-0.6c0-0.4-0.3-0.8-0.6-0.9v-0.1c0.1-0.4,0-0.8-0.3-1.1c-0.2-0.2-0.4-0.2-0.6-0.2
			s-0.3,0-0.5,0.1c-0.5,0.3-1,0.5-1.6,0.7C85.6-7.4,84.6-7.8,83.5-7.8L83.5-7.8z"/>
	</g>
	<g>
		<path class="st0" d="M123.6-8.6l0.1,3.2h-1.7c-0.6,0-0.7,0.6-0.7,0.9v2.4h2.9L123.6,1h-2.2v7.5h-3.7V1.1l-2.2,0.1V-2h2.2v-3.5
			c0-1.5,1.5-3,2.6-3L123.6-8.6 M123.6-9.6h-3.4c-1.7,0-3.6,2.1-3.6,4V-3h-1.3c-0.6,0-0.9,0.4-0.9,1v3.2c0,0.3,0.1,0.5,0.3,0.7
			s0.4,0.3,0.7,0.3l0,0l1.3-0.1v6.6c0,0.6,0.4,1,0.9,1h3.7c0.6,0,0.9-0.4,0.9-1V2.1h1.3c0.5,0,0.8-0.3,0.9-0.8l0.7-3.2
			c0.1-0.3,0-0.6-0.2-0.8c-0.2-0.2-0.5-0.4-0.7-0.4h-2v-1.3h1.4c0.3,0,0.5-0.1,0.7-0.3c0.2-0.2,0.3-0.5,0.3-0.7l-0.1-3.2
			C124.6-9.1,124.1-9.6,123.6-9.6L123.6-9.6z"/>
	</g>
</g>
</svg>
